 <svg version="1.0" xmlns="http://www.w3.org/2000/svg"  width="282.000000pt" height="171.000000pt" viewBox="0 0 282.000000 171.000000"  preserveAspectRatio="xMidYMid meet">  <g transform="translate(0.000000,171.000000) scale(0.100000,-0.100000)" fill="#" stroke="none"> <path d="M1240 1394 c-178 -38 -350 -173 -428 -335 -71 -148 -88 -288 -52 -438 52 -215 208 -387 415 -458 69 -24 96 -28 195 -28 186 0 307 50 441 184 252 251 252 647 0 902 -61 62 -94 86 -162 119 -140 67 -270 84 -409 54z m460 -248 c0 -14 -12 -34 -27 -48 -26 -21 -53 -67 -53 -88 0 -11 65 -30 103 -30 17 0 27 -5 27 -14 0 -8 5 -16 10 -18 17 -5 25 -172 10 -207 -7 -17 -16 -31 -21 -31 -5 0 -9 -5 -9 -12 0 -6 -14 -24 -32 -40 -24 -22 -41 -28 -75 -28 -36 0 -43 3 -43 20 0 14 7 20 23 20 25 0 87 49 87 68 0 7 4 12 8 12 5 0 14 12 21 27 13 29 5 133 -10 133 -5 0 -9 7 -9 15 0 10 -10 15 -27 15 -16 0 -45 5 -65 11 -37 10 -38 11 -38 59 0 59 15 96 55 132 38 35 65 37 65 4z m-299 -41 c35 -94 16 -173 -63 -258 -16 -18 -34 -41 -40 -51 -10 -18 -8 -17 25 2 51 32 92 29 114 -8 9 -16 21 -30 25 -30 4 0 8 -26 8 -57 0 -67 -25 -125 -73 -171 -35 -34 -42 -42 -75 -90 -21 -29 -28 -32 -73 -32 -95 0 -89 -26 -89 355 0 312 1 335 18 336 9 0 44 13 77 29 36 17 74 28 94 27 30 -2 35 -7 52 -52z"/> <path d="M1270 1080 l-65 -28 -3 -291 -2 -291 26 -12 c28 -13 28 -13 79 56 11 15 39 47 62 71 52 56 74 116 50 140 -9 9 -20 22 -24 30 -7 12 -18 10 -62 -12 -29 -15 -55 -32 -58 -40 -3 -7 -16 -13 -29 -13 -28 0 -32 25 -10 73 8 18 17 43 20 57 3 14 21 41 39 62 19 20 46 57 61 83 l26 47 -17 49 c-10 27 -20 49 -23 48 -3 0 -34 -13 -70 -29z"/> </g> </svg> 